<?xml version="1.0" encoding="utf-8"?>
<svg version="1.1" id="Layer_1" xmlns="http://www.w3.org/2000/svg" xmlns:xlink="http://www.w3.org/1999/xlink" x="0px" y="0px"
	 viewBox="0 0 250 250" enable-background="new 0 0 250 250" xml:space="preserve">
<g>
	<polygon fill="#010101" points="142.1,190.9 146.7,185.5 128.4,164.2 128.4,158 142.1,173.9 146.7,168.5 128.4,147.2 128.3,51 
		143.3,58.4 125,8 106.7,58.5 121.7,51 121.8,147.3 103.5,168.5 108.2,173.9 121.8,158.1 121.8,164.3 103.5,185.5 108.2,190.9 
		121.8,175.1 121.8,181.3 103.5,202.5 108.2,208 121.8,192.1 121.8,198.3 103.5,219.6 108.2,225 121.8,209.2 121.8,215.4 
		103.5,236.6 108.2,242 121.8,226.2 121.9,242 128.4,242 128.4,226.2 142.1,242 146.7,236.6 128.4,215.4 128.4,209.2 142.1,225 
		146.7,219.6 128.4,198.3 128.4,192.1 142.1,208 146.7,202.6 128.4,181.3 128.4,175.1 	"/>
	<polygon fill="#010101" points="79.6,194.5 86.7,194 88.8,165.9 93.2,161.6 91.6,182.5 98.7,181.9 100.9,153.9 168.8,85.8 
		174.2,101.7 196.9,53.1 148.3,75.8 164.1,81.2 96.1,149.3 68.2,151.4 67.7,158.5 88.5,157 84.1,161.3 56.2,163.4 55.6,170.6 
		76.4,169 72.1,173.4 44.1,175.5 43.6,182.6 64.4,181 60,185.4 32.1,187.5 31.5,194.6 52.4,193.1 48,197.5 20,199.6 19.5,206.7 
		40.4,205.1 29.2,216.3 33.8,221 45,209.8 43.4,230.6 50.6,230.1 52.7,202.1 57.1,197.7 55.5,218.6 62.6,218.1 64.7,190.1 
		69.1,185.7 67.5,206.5 74.7,206 76.8,178 81.1,173.6 	"/>
	<polygon fill="#010101" points="194.3,170.3 193.8,163.1 165.8,161 161.4,156.7 182.3,158.2 181.8,151.1 153.7,149 85.7,81 
		101.5,75.7 52.9,53 75.7,101.6 81,85.7 149.1,153.7 151.2,181.6 158.3,182.2 156.8,161.4 161.2,165.8 163.3,193.7 170.4,194.2 
		168.8,173.4 173.2,177.8 175.3,205.7 182.4,206.3 180.9,185.4 185.3,189.8 187.3,217.8 194.5,218.3 192.9,197.5 197.3,201.8 
		199.4,229.8 206.5,230.3 205,209.5 216.1,220.7 220.8,216 209.6,204.8 230.5,206.4 229.9,199.3 202,197.2 197.6,192.8 218.4,194.4 
		217.9,187.2 189.9,185.1 185.5,180.7 206.4,182.3 205.8,175.2 177.8,173.1 173.5,168.7 	"/>
</g>
<rect fill="none" width="250" height="250"/>
</svg>
