<?xml version="1.0" encoding="utf-8"?>
<svg version="1.1" id="Layer_1" xmlns="http://www.w3.org/2000/svg" xmlns:xlink="http://www.w3.org/1999/xlink" x="0px" y="0px"
	 viewBox="0 0 760 300" enable-background="new 0 0 760 300" xml:space="preserve">
<g>
	<path d="M373.9,71.3c8,0,14.1,1.5,18.4,4.4c4.2,2.9,6.4,7.4,6.4,13.4c0,7.5-3.7,12.6-11.1,15.3c1,1.2,2.2,2.7,3.4,4.5
		c1.3,1.8,2.6,3.7,3.9,5.7s2.6,4.2,3.8,6.3s2.3,4.3,3.3,6.4h-11.3c-1-1.9-2.1-3.9-3.3-5.8c-1.2-1.9-2.4-3.8-3.6-5.7
		c-1.2-1.8-2.4-3.6-3.6-5.2c-1.2-1.6-2.3-3.1-3.3-4.4c-0.7,0.1-1.4,0.1-1.9,0.1c-0.5,0-1,0-1.5,0h-4.9v21h-10.1V72.7
		c2.5-0.5,5.1-0.9,7.8-1.1C369.3,71.4,371.7,71.3,373.9,71.3z M374.6,80.1c-2.1,0-4.1,0.1-5.9,0.2v17.9h4.4c2.5,0,4.6-0.1,6.5-0.4
		c1.9-0.3,3.4-0.7,4.7-1.4c1.3-0.7,2.2-1.6,2.8-2.8c0.6-1.2,1-2.7,1-4.5c0-1.7-0.3-3.1-1-4.3c-0.6-1.2-1.6-2.1-2.8-2.8
		c-1.2-0.7-2.6-1.2-4.3-1.5S376.6,80.1,374.6,80.1z"/>
	<path d="M463.2,106.4c0,3.3-0.5,6.3-1.4,9c-1,2.7-2.3,5-4.1,7c-1.8,1.9-3.9,3.4-6.4,4.5c-2.5,1.1-5.2,1.6-8.2,1.6s-5.7-0.5-8.2-1.6
		c-2.5-1.1-4.6-2.6-6.3-4.5c-1.8-1.9-3.1-4.2-4.1-7c-1-2.7-1.5-5.7-1.5-9s0.5-6.3,1.5-9s2.4-5,4.2-6.9c1.8-1.9,3.9-3.4,6.4-4.4
		c2.5-1,5.1-1.6,8.1-1.6c2.9,0,5.6,0.5,8.1,1.6c2.5,1,4.6,2.5,6.4,4.4c1.8,1.9,3.1,4.2,4.1,6.9C462.7,100.1,463.2,103.1,463.2,106.4
		z M453.3,106.4c0-4.2-0.9-7.5-2.7-9.9c-1.8-2.4-4.3-3.6-7.5-3.6c-3.2,0-5.7,1.2-7.5,3.6c-1.8,2.4-2.7,5.7-2.7,9.9
		c0,4.2,0.9,7.5,2.7,10c1.8,2.5,4.3,3.7,7.5,3.7c3.2,0,5.7-1.2,7.5-3.7C452.4,113.9,453.3,110.6,453.3,106.4z"/>
	<path d="M486.9,106.5c0-3.1,0.5-6,1.4-8.7c1-2.7,2.3-5,4.1-7c1.8-2,4-3.5,6.5-4.6c2.6-1.1,5.4-1.7,8.6-1.7c3.9,0,7.7,0.7,11.2,2.2
		l-2.1,7.9c-1.1-0.5-2.4-0.9-3.8-1.2c-1.4-0.3-2.9-0.5-4.5-0.5c-3.8,0-6.7,1.2-8.6,3.6c-2,2.4-3,5.7-3,10c0,4.2,0.9,7.5,2.8,9.9
		c1.9,2.4,5,3.6,9.4,3.6c1.7,0,3.3-0.2,4.9-0.5c1.6-0.3,3-0.7,4.2-1.2l1.4,8c-1.1,0.5-2.7,1-4.8,1.4c-2.2,0.4-4.4,0.6-6.7,0.6
		c-3.6,0-6.7-0.5-9.3-1.6c-2.6-1.1-4.8-2.6-6.6-4.6s-3-4.3-3.9-7C487.3,112.5,486.9,109.6,486.9,106.5z"/>
	<path d="M552.6,101.8c1.2-1.3,2.5-2.7,3.9-4.1c1.4-1.5,2.7-2.9,4.1-4.4c1.3-1.5,2.6-2.9,3.8-4.2s2.2-2.5,3.1-3.6H579
		c-2.7,3-5.5,6.1-8.4,9.3c-3,3.2-5.9,6.3-8.9,9.4c1.6,1.3,3.3,2.9,5,4.8c1.8,1.9,3.5,3.9,5.1,6c1.7,2.1,3.2,4.3,4.6,6.4
		c1.4,2.1,2.6,4.1,3.6,5.9h-11.2c-1-1.7-2.1-3.4-3.3-5.2c-1.3-1.8-2.6-3.6-4-5.3c-1.4-1.7-2.9-3.3-4.4-4.8c-1.5-1.5-3-2.8-4.4-3.9
		v19.2H543V66.9l9.7-1.6L552.6,101.8L552.6,101.8z"/>
	<path d="M600.7,106.6c0-3.7,0.5-6.9,1.6-9.7c1.1-2.8,2.5-5.1,4.4-6.9s3.9-3.2,6.2-4.2c2.3-0.9,4.7-1.4,7.2-1.4
		c5.8,0,10.3,1.8,13.5,5.4c3.2,3.6,4.8,8.9,4.8,16c0,0.5,0,1.1,0,1.8c0,0.7-0.1,1.3-0.1,1.8h-27.6c0.3,3.4,1.5,6,3.6,7.8
		c2.1,1.8,5.2,2.8,9.2,2.8c2.3,0,4.5-0.2,6.4-0.6c1.9-0.4,3.5-0.9,4.6-1.4l1.3,7.9c-0.5,0.3-1.3,0.5-2.2,0.8c-0.9,0.3-2,0.6-3.2,0.8
		c-1.2,0.2-2.5,0.4-3.9,0.6c-1.4,0.2-2.8,0.2-4.2,0.2c-3.7,0-6.9-0.5-9.6-1.6c-2.7-1.1-5-2.6-6.7-4.6s-3.1-4.2-3.9-6.9
		C601.1,112.7,600.7,109.8,600.7,106.6z M628.8,102.3c0-1.3-0.2-2.6-0.6-3.8s-0.9-2.2-1.6-3.1s-1.6-1.6-2.6-2.1s-2.3-0.8-3.7-0.8
		c-1.5,0-2.8,0.3-3.9,0.8c-1.1,0.6-2.1,1.3-2.8,2.2c-0.8,0.9-1.4,1.9-1.8,3.1c-0.4,1.2-0.7,2.4-0.9,3.6H628.8L628.8,102.3z"/>
	<path d="M664.2,74.5l9.7-1.6v12.6h14.9v8.1h-14.9v17c0,3.4,0.5,5.8,1.6,7.2s2.9,2.2,5.4,2.2c1.8,0,3.3-0.2,4.7-0.6
		c1.4-0.4,2.4-0.7,3.2-1l1.6,7.7c-1.1,0.5-2.6,1-4.4,1.5c-1.8,0.5-3.9,0.8-6.4,0.8c-3,0-5.5-0.4-7.5-1.2c-2-0.8-3.6-2-4.8-3.5
		c-1.2-1.5-2-3.4-2.5-5.5s-0.7-4.6-0.7-7.4L664.2,74.5L664.2,74.5z"/>
	<path d="M403.3,215.3c-0.5-1.3-1.3-3.1-2.3-5.3c-1-2.2-2.1-4.6-3.3-7.2c-1.2-2.6-2.5-5.3-3.8-8c-1.3-2.7-2.5-5.3-3.7-7.7
		c-1.2-2.4-2.2-4.5-3.1-6.3c-0.9-1.8-1.6-3.1-2-3.8c-0.7,6.7-1.2,13.9-1.6,21.7c-0.4,7.8-0.8,16-1.1,24.6H377
		c0.5-10.1,1-19.7,1.6-29c0.6-9.2,1.4-18.1,2.3-26.5h4.8c1.6,2.7,3.3,5.7,5.1,9.2s3.6,7.1,5.4,10.9c1.8,3.8,3.5,7.5,5.2,11.1
		c1.7,3.7,3.2,6.9,4.4,9.9c1.3-2.9,2.8-6.2,4.4-9.9c1.7-3.7,3.4-7.4,5.2-11.1c1.8-3.8,3.6-7.4,5.4-10.9s3.5-6.6,5.1-9.2h4.6
		c0.9,8.4,1.7,17.3,2.3,26.5c0.6,9.2,1.2,18.9,1.6,29h-5.5c-0.3-8.6-0.7-16.8-1.1-24.6s-0.9-15.1-1.6-21.7c-0.4,0.7-1.1,2-2,3.8
		c-0.9,1.8-1.9,3.9-3.1,6.3c-1.2,2.4-2.4,5-3.7,7.7c-1.3,2.7-2.5,5.4-3.8,8c-1.2,2.6-2.3,5-3.3,7.2c-1,2.2-1.7,3.9-2.3,5.3H403.3z"
		/>
	<path d="M475.8,181c2.7,0,5,0.4,6.9,1.2c1.9,0.8,3.4,1.8,4.6,3.2c1.2,1.4,2,3,2.6,4.8c0.5,1.9,0.8,3.9,0.8,6.1v26.1
		c-0.5,0.2-1.3,0.3-2.3,0.5c-1,0.2-2.2,0.4-3.5,0.6c-1.3,0.2-2.8,0.4-4.4,0.5c-1.6,0.1-3.3,0.2-5,0.2c-2.2,0-4.2-0.2-6-0.7
		s-3.4-1.2-4.8-2.3c-1.4-1-2.4-2.4-3.2-4c-0.8-1.6-1.2-3.6-1.2-6c0-2.2,0.4-4.2,1.3-5.8c0.9-1.6,2.1-2.9,3.6-4
		c1.5-1,3.4-1.8,5.5-2.3c2.1-0.5,4.5-0.7,7-0.7c0.7,0,1.5,0,2.4,0.1c0.8,0.1,1.6,0.2,2.4,0.3c0.8,0.1,1.4,0.3,2,0.4
		c0.6,0.1,0.9,0.3,1.2,0.4v-2.6c0-1.4-0.1-2.8-0.3-4.2c-0.2-1.4-0.7-2.6-1.4-3.7c-0.7-1.1-1.7-2-3-2.6c-1.3-0.7-3-1-5.2-1
		c-3,0-5.3,0.2-6.8,0.6s-2.6,0.8-3.3,1l-0.7-4.6c0.9-0.4,2.3-0.8,4.2-1.2C470.9,181.2,473.1,181,475.8,181z M476.3,219.6
		c2,0,3.8-0.1,5.3-0.2s2.8-0.3,3.9-0.5v-14.6c-0.6-0.3-1.5-0.5-2.8-0.8c-1.3-0.3-3-0.4-5.3-0.4c-1.3,0-2.6,0.1-4,0.3
		c-1.4,0.2-2.7,0.6-3.8,1.2c-1.2,0.6-2.1,1.5-2.9,2.5s-1.1,2.5-1.1,4.2c0,1.5,0.3,2.9,0.8,3.9c0.5,1.1,1.2,1.9,2.2,2.6
		c0.9,0.6,2.1,1.1,3.4,1.4C473.1,219.4,474.6,219.6,476.3,219.6z"/>
	<path d="M532.5,217.7c1.1-2.3,2.3-4.9,3.5-7.9c1.2-3,2.3-6,3.4-9.2c1.1-3.2,2.1-6.4,3-9.6c0.9-3.2,1.7-6.3,2.4-9.1h5.2
		c-1,3.8-2,7.5-3.2,11.2c-1.2,3.7-2.4,7.3-3.7,10.8c-1.3,3.5-2.7,6.9-4.1,10.2c-1.4,3.3-2.8,6.3-4.1,9.2h-4.8
		c-1.4-2.9-2.8-5.9-4.2-9.2c-1.4-3.3-2.8-6.6-4.1-10.2c-1.3-3.5-2.6-7.1-3.7-10.8c-1.2-3.7-2.3-7.4-3.2-11.2h5.5
		c0.6,2.8,1.4,5.9,2.4,9.1c0.9,3.2,2,6.4,3.1,9.6c1.1,3.2,2.2,6.2,3.4,9.2C530.2,212.8,531.4,215.4,532.5,217.7z"/>
	<path d="M571.9,202.6c0-3.6,0.5-6.8,1.6-9.5c1-2.7,2.4-4.9,4.1-6.8s3.6-3.2,5.8-4c2.2-0.9,4.4-1.3,6.7-1.3c5.1,0,9.1,1.7,12.1,5
		s4.5,8.4,4.5,15.3c0,0.4,0,0.9,0,1.3c0,0.4-0.1,0.8-0.1,1.2h-29c0.2,5.1,1.4,9,3.8,11.7c2.3,2.7,6.1,4.1,11.2,4.1
		c2.8,0,5.1-0.3,6.7-0.8c1.7-0.5,2.9-1,3.6-1.4l1,4.5c-0.7,0.4-2.1,0.9-4.2,1.5c-2.1,0.6-4.5,0.9-7.2,0.9c-3.6,0-6.7-0.5-9.3-1.6
		s-4.7-2.6-6.3-4.5c-1.7-1.9-2.9-4.2-3.6-6.8C572.3,208.7,571.9,205.8,571.9,202.6z M601.2,199.3c-0.1-4.3-1.1-7.7-3-10.1
		c-1.9-2.4-4.6-3.6-8.2-3.6c-1.9,0-3.5,0.4-5,1.1s-2.7,1.7-3.8,3c-1.1,1.3-1.9,2.7-2.6,4.4c-0.6,1.7-1,3.4-1.1,5.2H601.2
		L601.2,199.3z"/>
	<path d="M634.2,183.4c1.5-0.4,3.6-0.9,6.2-1.4c2.6-0.5,5.8-0.8,9.6-0.8c3.1,0,5.8,0.5,7.9,1.4c2.1,0.9,3.8,2.2,5,3.9s2.1,3.7,2.7,6
		c0.5,2.3,0.8,4.9,0.8,7.8v23.1h-5.2v-21.4c0-2.9-0.2-5.4-0.6-7.4c-0.4-2-1.1-3.7-2-5s-2.2-2.2-3.7-2.8c-1.5-0.6-3.4-0.8-5.7-0.8
		c-2.5,0-4.6,0.1-6.4,0.4c-1.8,0.3-2.9,0.5-3.5,0.7v36.3h-5.2L634.2,183.4L634.2,183.4z"/>
</g>
<rect x="300" fill="none" width="460" height="300"/>
<g>
	<polygon points="166.9,206.9 171.5,201.5 153.2,180.2 153.2,174 166.9,189.9 171.5,184.5 153.2,163.2 153.1,67 168.1,74.4 
		149.8,24 131.5,74.5 146.5,67 146.6,163.3 128.3,184.5 133,189.9 146.6,174.1 146.6,180.3 128.3,201.5 133,206.9 146.6,191.1 
		146.6,197.3 128.3,218.5 133,224 146.6,208.1 146.6,214.3 128.3,235.6 133,241 146.6,225.2 146.6,231.4 128.3,252.6 133,258 
		146.6,242.2 146.7,258 153.2,258 153.2,242.2 166.9,258 171.5,252.6 153.2,231.4 153.2,225.2 166.9,241 171.5,235.6 153.2,214.3 
		153.2,208.1 166.9,224 171.5,218.6 153.2,197.3 153.2,191.1 	"/>
	<polygon points="104.4,210.5 111.5,210 113.6,181.9 118,177.6 116.4,198.5 123.5,197.9 125.7,169.9 193.6,101.8 199,117.7 
		221.7,69.1 173.1,91.8 188.9,97.2 120.9,165.3 93,167.4 92.5,174.5 113.3,173 108.9,177.3 81,179.4 80.4,186.6 101.2,185 
		96.9,189.4 68.9,191.5 68.4,198.6 89.2,197 84.8,201.4 56.9,203.5 56.3,210.6 77.2,209.1 72.8,213.5 44.8,215.6 44.3,222.7 
		65.2,221.1 54,232.3 58.6,237 69.8,225.8 68.2,246.6 75.4,246.1 77.5,218.1 81.9,213.7 80.3,234.6 87.4,234.1 89.5,206.1 
		93.9,201.7 92.3,222.5 99.5,222 101.6,194 105.9,189.6 	"/>
	<polygon points="219.1,186.3 218.6,179.1 190.6,177 186.2,172.7 207.1,174.2 206.6,167.1 178.5,165 110.5,97 126.3,91.7 77.7,69 
		100.5,117.6 105.8,101.7 173.9,169.7 176,197.6 183.1,198.2 181.6,177.4 186,181.8 188.1,209.7 195.2,210.2 193.6,189.4 198,193.8 
		200.1,221.7 207.2,222.3 205.7,201.4 210.1,205.8 212.1,233.8 219.3,234.3 217.7,213.5 222.1,217.8 224.2,245.8 231.3,246.3 
		229.8,225.5 240.9,236.7 245.6,232 234.4,220.8 255.3,222.4 254.7,215.3 226.8,213.2 222.4,208.8 243.2,210.4 242.7,203.2 
		214.7,201.1 210.3,196.7 231.2,198.3 230.6,191.2 202.6,189.1 198.3,184.7 	"/>
	<rect fill="none" width="300" height="300"/>
</g>
</svg>
