<svg xmlns="http://www.w3.org/2000/svg" id="rocket_maven_logo" viewBox="0 0 760 300" xml:space="preserve"><path d="M373.9 71.3c8 0 14.1 1.5 18.4 4.4 4.2 2.9 6.4 7.4 6.4 13.4 0 7.5-3.7 12.6-11.1 15.3a140.8 140.8 0 0 1 14.4 22.9h-11.3c-1-1.9-2.1-3.9-3.3-5.8l-3.6-5.7-3.6-5.2-3.3-4.4-1.9.1h-6.4v21h-10.1V72.7a63.7 63.7 0 0 1 15.4-1.4zm.7 8.8-5.9.2v17.9h4.4a42 42 0 0 0 6.5-.4c1.9-.3 3.4-.7 4.7-1.4a6.3 6.3 0 0 0 2.8-2.8 10 10 0 0 0 1-4.5c0-1.7-.3-3.1-1-4.3a6.9 6.9 0 0 0-2.8-2.8c-1.2-.7-2.6-1.2-4.3-1.5s-3.4-.4-5.4-.4zm88.6 26.3c0 3.3-.5 6.3-1.4 9-1 2.7-2.3 5-4.1 7a19.5 19.5 0 0 1-14.6 6.1c-3 0-5.7-.5-8.2-1.6a19.3 19.3 0 0 1-10.4-11.5c-1-2.7-1.5-5.7-1.5-9s.5-6.3 1.5-9 2.4-5 4.2-6.9c1.8-1.9 3.9-3.4 6.4-4.4a21.3 21.3 0 0 1 16.2 0c2.5 1 4.6 2.5 6.4 4.4 1.8 1.9 3.1 4.2 4.1 6.9.9 2.7 1.4 5.7 1.4 9zm-9.9 0c0-4.2-.9-7.5-2.7-9.9a8.8 8.8 0 0 0-7.5-3.6 8.8 8.8 0 0 0-7.5 3.6 16.2 16.2 0 0 0-2.7 9.9c0 4.2.9 7.5 2.7 10a8.7 8.7 0 0 0 7.5 3.7c3.2 0 5.7-1.2 7.5-3.7 1.8-2.5 2.7-5.8 2.7-10zm33.6.1c0-3.1.5-6 1.4-8.7a18.8 18.8 0 0 1 10.6-11.6c2.6-1.1 5.4-1.7 8.6-1.7 3.9 0 7.7.7 11.2 2.2l-2.1 7.9a21.4 21.4 0 0 0-8.3-1.7c-3.8 0-6.7 1.2-8.6 3.6-2 2.4-3 5.7-3 10 0 4.2.9 7.5 2.8 9.9 1.9 2.4 5 3.6 9.4 3.6a26.3 26.3 0 0 0 9.1-1.7l1.4 8a37.1 37.1 0 0 1-11.5 2c-3.6 0-6.7-.5-9.3-1.6-2.6-1.1-4.8-2.6-6.6-4.6s-3-4.3-3.9-7c-.8-2.6-1.2-5.5-1.2-8.6zm65.7-4.7 3.9-4.1 4.1-4.4 3.8-4.2 3.1-3.6H579l-8.4 9.3-8.9 9.4a73.4 73.4 0 0 1 14.7 17.2c1.4 2.1 2.6 4.1 3.6 5.9h-11.2l-3.3-5.2-4-5.3a67.7 67.7 0 0 0-8.8-8.7v19.2H543V66.9l9.7-1.6-.1 36.5zm48.1 4.8c0-3.7.5-6.9 1.6-9.7 1.1-2.8 2.5-5.1 4.4-6.9s3.9-3.2 6.2-4.2c2.3-.9 4.7-1.4 7.2-1.4 5.8 0 10.3 1.8 13.5 5.4 3.2 3.6 4.8 8.9 4.8 16v1.8l-.1 1.8h-27.6a11 11 0 0 0 3.6 7.8c2.1 1.8 5.2 2.8 9.2 2.8a31.6 31.6 0 0 0 11-2l1.3 7.9c-.5.3-1.3.5-2.2.8l-3.2.8-3.9.6c-1.4.2-2.8.2-4.2.2-3.7 0-6.9-.5-9.6-1.6-2.7-1.1-5-2.6-6.7-4.6s-3.1-4.2-3.9-6.9c-1-2.5-1.4-5.4-1.4-8.6zm28.1-4.3a12 12 0 0 0-2.2-6.9c-.7-.9-1.6-1.6-2.6-2.1s-2.3-.8-3.7-.8c-1.5 0-2.8.3-3.9.8a8.8 8.8 0 0 0-2.8 2.2c-.8.9-1.4 1.9-1.8 3.1l-.9 3.6h17.9v.1zm35.4-27.8 9.7-1.6v12.6h14.9v8.1h-14.9v17c0 3.4.5 5.8 1.6 7.2s2.9 2.2 5.4 2.2c1.8 0 3.3-.2 4.7-.6a44 44 0 0 0 3.2-1l1.6 7.7c-1.1.5-2.6 1-4.4 1.5-1.8.5-3.9.8-6.4.8-3 0-5.5-.4-7.5-1.2-2-.8-3.6-2-4.8-3.5-1.2-1.5-2-3.4-2.5-5.5s-.7-4.6-.7-7.4l.1-36.3zM403.3 215.3 401 210l-3.3-7.2-3.8-8-3.7-7.7-3.1-6.3a84 84 0 0 0-2-3.8c-.7 6.7-1.2 13.9-1.6 21.7l-1.1 24.6H377l1.6-29c.6-9.2 1.4-18.1 2.3-26.5h4.8a172.7 172.7 0 0 1 10.5 20.1l5.2 11.1c1.7 3.7 3.2 6.9 4.4 9.9l4.4-9.9a553 553 0 0 1 10.6-22c1.8-3.5 3.5-6.6 5.1-9.2h4.6a1127.5 1127.5 0 0 1 3.9 55.5h-5.5l-1.1-24.6c-.4-7.8-.9-15.1-1.6-21.7l-2 3.8-3.1 6.3-3.7 7.7-3.8 8-3.3 7.2-2.3 5.3h-4.7zm72.5-34.3c2.7 0 5 .4 6.9 1.2a11.9 11.9 0 0 1 7.2 8c.5 1.9.8 3.9.8 6.1v26.1l-2.3.5a82.6 82.6 0 0 1-12.9 1.3c-2.2 0-4.2-.2-6-.7s-3.4-1.2-4.8-2.3c-1.4-1-2.4-2.4-3.2-4-.8-1.6-1.2-3.6-1.2-6 0-2.2.4-4.2 1.3-5.8.9-1.6 2.1-2.9 3.6-4 1.5-1 3.4-1.8 5.5-2.3 2.1-.5 4.5-.7 7-.7l2.4.1 2.4.3 2 .4 1.2.4V197l-.3-4.2a9.2 9.2 0 0 0-1.4-3.7 7 7 0 0 0-3-2.6c-1.3-.7-3-1-5.2-1-3 0-5.3.2-6.8.6l-3.3 1-.7-4.6c.9-.4 2.3-.8 4.2-1.2 1.7-.1 3.9-.3 6.6-.3zm.5 38.6a78.6 78.6 0 0 0 9.2-.7v-14.6c-.6-.3-1.5-.5-2.8-.8a28 28 0 0 0-9.3-.1c-1.4.2-2.7.6-3.8 1.2-1.2.6-2.1 1.5-2.9 2.5s-1.1 2.5-1.1 4.2a9 9 0 0 0 .8 3.9 6.2 6.2 0 0 0 2.2 2.6c.9.6 2.1 1.1 3.4 1.4 1.1.2 2.6.4 4.3.4zm56.2-1.9a129.1 129.1 0 0 0 6.9-17.1 176.7 176.7 0 0 0 5.4-18.7h5.2a205.8 205.8 0 0 1-11 32.2l-4.1 9.2h-4.8l-4.2-9.2c-1.4-3.3-2.8-6.6-4.1-10.2a171 171 0 0 1-6.9-22h5.5a178.3 178.3 0 0 0 8.9 27.9 54 54 0 0 0 3.2 7.9zm39.4-15.1c0-3.6.5-6.8 1.6-9.5 1-2.7 2.4-4.9 4.1-6.8s3.6-3.2 5.8-4c2.2-.9 4.4-1.3 6.7-1.3 5.1 0 9.1 1.7 12.1 5s4.5 8.4 4.5 15.3v1.3l-.1 1.2h-29c.2 5.1 1.4 9 3.8 11.7 2.3 2.7 6.1 4.1 11.2 4.1a23.5 23.5 0 0 0 10.3-2.2l1 4.5a26.3 26.3 0 0 1-11.4 2.4c-3.6 0-6.7-.5-9.3-1.6a16.4 16.4 0 0 1-9.9-11.3 25 25 0 0 1-1.4-8.8zm29.3-3.3c-.1-4.3-1.1-7.7-3-10.1a9.8 9.8 0 0 0-8.2-3.6 11 11 0 0 0-8.8 4.1 16 16 0 0 0-3.7 9.6h23.7zm33-15.9 6.2-1.4c2.6-.5 5.8-.8 9.6-.8 3.1 0 5.8.5 7.9 1.4 2.1.9 3.8 2.2 5 3.9s2.1 3.7 2.7 6c.5 2.3.8 4.9.8 7.8v23.1h-5.2V202c0-2.9-.2-5.4-.6-7.4-.4-2-1.1-3.7-2-5s-2.2-2.2-3.7-2.8c-1.5-.6-3.4-.8-5.7-.8a39.8 39.8 0 0 0-9.9 1.1v36.3h-5.2l.1-40z"/><path fill="none" d="M300 0h460v300H300z"/><g class="rocket_maven_icon" style="transform-box:fill-box;transform:rotate(0deg);transform-origin:center"><path d="m166.9 206.9 4.6-5.4-18.3-21.3V174l13.7 15.9 4.6-5.4-18.3-21.3-.1-96.2 15 7.4L149.8 24l-18.3 50.5 15-7.5.1 96.3-18.3 21.2 4.7 5.4 13.6-15.8v6.2l-18.3 21.2 4.7 5.4 13.6-15.8v6.2l-18.3 21.2 4.7 5.5 13.6-15.9v6.2l-18.3 21.3 4.7 5.4 13.6-15.8v6.2l-18.3 21.2 4.7 5.4 13.6-15.8.1 15.8h6.5v-15.8l13.7 15.8 4.6-5.4-18.3-21.2v-6.2l13.7 15.8 4.6-5.4-18.3-21.3v-6.2l13.7 15.9 4.6-5.4-18.3-21.3v-6.2z"/><path d="m104.4 210.5 7.1-.5 2.1-28.1 4.4-4.3-1.6 20.9 7.1-.6 2.2-28 67.9-68.1 5.4 15.9 22.7-48.6-48.6 22.7 15.8 5.4-68 68.1-27.9 2.1-.5 7.1 20.8-1.5-4.4 4.3-27.9 2.1-.6 7.2 20.8-1.6-4.3 4.4-28 2.1-.5 7.1 20.8-1.6-4.4 4.4-27.9 2.1-.6 7.1 20.9-1.5-4.4 4.4-28 2.1-.5 7.1 20.9-1.6L54 232.3l4.6 4.7 11.2-11.2-1.6 20.8 7.2-.5 2.1-28 4.4-4.4-1.6 20.9 7.1-.5 2.1-28 4.4-4.4-1.6 20.8 7.2-.5 2.1-28 4.3-4.4z"/><path d="m219.1 186.3-.5-7.2-28-2.1-4.4-4.3 20.9 1.5-.5-7.1-28.1-2.1-68-68 15.8-5.3L77.7 69l22.8 48.6 5.3-15.9 68.1 68 2.1 27.9 7.1.6-1.5-20.8 4.4 4.4 2.1 27.9 7.1.5-1.6-20.8 4.4 4.4 2.1 27.9 7.1.6-1.5-20.9 4.4 4.4 2 28 7.2.5-1.6-20.8 4.4 4.3 2.1 28 7.1.5-1.5-20.8 11.1 11.2 4.7-4.7-11.2-11.2 20.9 1.6-.6-7.1-27.9-2.1-4.4-4.4 20.8 1.6-.5-7.2-28-2.1-4.4-4.4 20.9 1.6-.6-7.1-28-2.1-4.3-4.4z"/><path fill="none" d="M0 0h300v300H0z"/></g></svg>