<?xml version="1.0" encoding="utf-8"?>
<!-- Generator: Adobe Illustrator 23.0.1, SVG Export Plug-In . SVG Version: 6.00 Build 0)  -->
<svg version="1.1" id="Layer_1" xmlns="http://www.w3.org/2000/svg" xmlns:xlink="http://www.w3.org/1999/xlink" x="0px" y="0px"
	 viewBox="0 0 300 100" style="enable-background:new 0 0 300 100;" xml:space="preserve">
<g>
	<path d="M14.7,41.6c0-0.4,0.1-0.8,0.2-1.1s0.4-0.6,0.6-0.8s0.6-0.4,0.9-0.5s0.7-0.2,1-0.2c0.3,0,0.6,0.1,1,0.2s0.6,0.3,0.8,0.4
		s0.5,0.4,0.6,0.8s0.3,0.7,0.3,1.1c0,0,0,0.1,0,0.3s0,0.4,0,0.6s0,0.5,0,0.6s0,0.3,0,0.3c0.4-1.3,1-2.4,2.1-3.3s2.4-1.3,4.1-1.3
		c0.4,0,0.7,0.1,1,0.2s0.6,0.3,0.8,0.5s0.4,0.4,0.5,0.7s0.2,0.5,0.2,0.8s-0.1,0.6-0.2,0.8s-0.3,0.5-0.5,0.7s-0.5,0.4-0.8,0.5
		s-0.7,0.2-1.1,0.2c-0.9,0-1.7,0.1-2.5,0.4s-1.4,0.7-1.9,1.2s-0.9,1.2-1.2,1.9s-0.4,1.6-0.4,2.7v10.5c0,0.4-0.1,0.8-0.2,1.1
		s-0.4,0.6-0.6,0.8s-0.6,0.4-0.9,0.5s-0.7,0.2-1,0.2s-0.7-0.1-1-0.2s-0.6-0.3-0.9-0.5s-0.5-0.5-0.6-0.8s-0.2-0.7-0.2-1.1V41.6z"/>
	<path d="M30.7,50.8c0-1.4,0.3-2.9,0.8-4.4s1.3-2.8,2.3-3.9s2.3-2,3.8-2.7s3.3-1,5.4-1s3.9,0.3,5.4,1s2.8,1.6,3.8,2.7
		s1.8,2.4,2.3,3.9s0.8,3,0.8,4.4c0,1.4-0.3,2.9-0.8,4.3s-1.3,2.8-2.3,3.9s-2.3,2-3.8,2.7s-3.3,1-5.4,1s-3.9-0.3-5.4-1
		s-2.8-1.6-3.8-2.7s-1.8-2.4-2.3-3.9S30.7,52.2,30.7,50.8z M36.5,50.8c0,0.9,0.1,1.9,0.4,2.9s0.6,2,1.1,2.8s1.2,1.4,2,1.9
		s1.8,0.7,3,0.7s2.1-0.2,3-0.7s1.5-1.1,2-1.9s0.9-1.7,1.1-2.8s0.4-2,0.4-2.9s-0.1-1.9-0.4-2.9s-0.6-2-1.1-2.8s-1.2-1.5-2-1.9
		s-1.8-0.7-3-0.7s-2.1,0.2-3,0.7s-1.5,1.1-2,1.9s-0.9,1.7-1.1,2.8S36.5,49.9,36.5,50.8z"/>
	<path d="M58.8,50.8c0-1.6,0.3-3.1,0.9-4.6s1.4-2.8,2.4-3.9s2.3-2,3.7-2.6s3-0.9,4.8-0.9c0.8,0,1.7,0.1,2.6,0.2s1.7,0.4,2.4,0.7
		s1.3,0.7,1.8,1.1s0.7,0.9,0.7,1.5c0,0.5-0.2,0.9-0.5,1.3s-0.7,0.6-1.3,0.6c-0.2,0-0.3,0-0.5-0.1c-0.8-0.3-1.6-0.6-2.4-0.8
		S71.9,43,71.2,43c-1,0-1.9,0.2-2.7,0.6s-1.5,0.9-2.1,1.6s-1,1.5-1.4,2.5s-0.5,2-0.5,3c0,0.8,0.1,1.7,0.4,2.7s0.6,1.8,1.2,2.6
		s1.2,1.4,2,1.8s1.8,0.7,3,0.7c0.8,0,1.6-0.1,2.5-0.3s1.8-0.5,2.7-0.9c0.2,0,0.4-0.1,0.5-0.1c0.5,0,1,0.2,1.3,0.6s0.5,0.8,0.5,1.3
		c0,0.6-0.3,1.1-0.8,1.5s-1.2,0.8-1.9,1.2s-1.7,0.6-2.6,0.8s-1.9,0.3-2.8,0.3c-1.7,0-3.3-0.3-4.7-0.9S63,60.4,62,59.3
		s-1.8-2.4-2.3-3.9S58.8,52.4,58.8,50.8z"/>
	<path d="M87.3,50v9.8c0,0.5-0.1,0.9-0.2,1.2s-0.4,0.6-0.6,0.9s-0.6,0.4-0.9,0.5s-0.7,0.2-1,0.2s-0.7-0.1-1-0.2s-0.6-0.3-0.9-0.5
		s-0.5-0.5-0.6-0.9s-0.2-0.7-0.2-1.2V31.6c0-0.4,0.1-0.8,0.2-1.2s0.4-0.6,0.6-0.9s0.6-0.4,0.9-0.5s0.7-0.2,1-0.2
		c0.3,0,0.7,0.1,1,0.2s0.6,0.3,0.9,0.5s0.5,0.5,0.6,0.9s0.2,0.7,0.2,1.2v16.9l9.3-8.4c0.3-0.3,0.7-0.6,1-0.7s0.6-0.3,1-0.3
		c0.3,0,0.6,0.1,0.9,0.2s0.6,0.3,0.8,0.5s0.4,0.4,0.6,0.7s0.2,0.5,0.2,0.8c0,0.3,0,0.5-0.1,0.7s-0.2,0.4-0.5,0.6l-7.8,6.7l8.9,9.7
		c0.2,0.2,0.3,0.4,0.4,0.6s0.1,0.4,0.1,0.6c0,0.3-0.1,0.6-0.2,0.9s-0.3,0.5-0.6,0.7s-0.5,0.4-0.9,0.5s-0.6,0.2-1,0.2
		c-0.4,0-0.7-0.1-1.1-0.3s-0.6-0.5-1-0.8L87.3,50z"/>
	<path d="M127.2,50c0,0.4-0.1,0.8-0.4,1.1s-0.7,0.5-1.3,0.5h-16c0.1,2.3,0.8,4,2.1,5.3s2.9,1.9,5,1.9c1.3,0,2.5-0.2,3.6-0.5
		s2.3-0.8,3.4-1.4c0.3-0.1,0.5-0.2,0.8-0.2c0.4,0,0.8,0.2,1,0.5s0.4,0.7,0.4,1.1c0,0.2,0,0.4-0.1,0.6s-0.1,0.4-0.3,0.6
		c-0.5,0.6-1.1,1.2-1.8,1.6s-1.5,0.8-2.4,1.1s-1.7,0.5-2.6,0.6s-1.8,0.2-2.6,0.2c-1.7,0-3.3-0.3-4.8-0.8s-2.7-1.4-3.8-2.4
		s-1.9-2.4-2.6-4s-0.9-3.2-0.9-4.9c0-1.4,0.3-2.9,0.9-4.3s1.4-2.8,2.4-3.8s2.2-2,3.6-2.7s3.1-1,4.9-1c1.9,0,3.6,0.3,5,0.9
		s2.6,1.4,3.5,2.4s1.6,2.2,2.1,3.6S127.2,48.6,127.2,50z M122.3,48.8c-0.1-0.8-0.2-1.5-0.5-2.4s-0.7-1.6-1.3-2.2s-1.2-1.1-2-1.4
		s-1.7-0.5-2.7-0.5c-0.9,0-1.7,0.2-2.5,0.5s-1.4,0.8-1.9,1.4s-1,1.4-1.3,2.2s-0.5,1.6-0.6,2.3H122.3z"/>
	<path d="M134.3,39.1l0.4-6.3c0-0.3,0.1-0.7,0.3-0.9s0.4-0.5,0.6-0.7s0.5-0.3,0.8-0.4s0.6-0.1,0.9-0.1c0.6,0,1.1,0.2,1.5,0.5
		s0.7,0.9,0.7,1.6v6.4h3.6c0.6,0,1.1,0.2,1.5,0.6s0.5,0.8,0.5,1.3s-0.2,0.9-0.5,1.3s-0.8,0.6-1.5,0.6h-3.6v9.8c0,1.1,0,2,0.1,2.8
		s0.1,1.4,0.3,1.9s0.4,0.8,0.8,1s0.8,0.3,1.5,0.3c0.2,0,0.3,0,0.5,0s0.4,0,0.6-0.1s0.4,0,0.5-0.1s0.3,0,0.4,0c0.6,0,1.1,0.2,1.4,0.6
		s0.5,0.8,0.5,1.3c0,0.5-0.2,0.9-0.5,1.2s-0.7,0.6-1.2,0.8s-1,0.3-1.7,0.4s-1.2,0.1-1.9,0.1c-1.1,0-2.1-0.1-2.9-0.4
		s-1.6-0.7-2.1-1.4s-1-1.5-1.3-2.6S134,56,134,54.5V42.8h-2.3c-0.7,0-1.1-0.2-1.5-0.6s-0.5-0.8-0.5-1.3s0.2-0.9,0.5-1.3
		s0.8-0.6,1.5-0.6H134.3z"/>
	<path d="M181.9,47.5c0-1-0.1-1.9-0.4-2.6s-0.7-1.3-1.2-1.8s-1.1-0.8-1.7-1s-1.3-0.3-2-0.3c-0.9,0-1.7,0.1-2.6,0.4s-1.6,0.7-2.2,1.2
		s-1.2,1.3-1.6,2.2s-0.6,2.1-0.6,3.4v11.8c0,0.6-0.2,1-0.6,1.3s-0.8,0.4-1.3,0.4s-0.9-0.1-1.3-0.4s-0.6-0.7-0.6-1.3V47.5
		c0-1-0.1-1.9-0.4-2.6s-0.7-1.3-1.2-1.8c-0.5-0.5-1.1-0.8-1.7-1s-1.3-0.3-2-0.3c-1,0-1.9,0.1-2.7,0.4s-1.6,0.8-2.2,1.4
		s-1.1,1.4-1.5,2.3s-0.6,2-0.6,3.3v11.7c0,0.6-0.2,1-0.6,1.3s-0.8,0.4-1.3,0.4c-0.5,0-0.9-0.1-1.3-0.4s-0.6-0.7-0.6-1.3V41
		c0-0.6,0.2-1,0.6-1.3s0.8-0.4,1.3-0.4c0.2,0,0.5,0,0.7,0.1s0.4,0.2,0.6,0.3s0.3,0.3,0.4,0.5s0.2,0.4,0.2,0.7v2.2
		c0.3-0.7,0.7-1.4,1.3-1.9s1.2-1,1.9-1.4s1.4-0.6,2.2-0.8s1.6-0.3,2.4-0.3c0.8,0,1.7,0.1,2.4,0.3c0.8,0.2,1.5,0.5,2.2,0.9
		s1.3,0.9,1.8,1.5s0.9,1.4,1.3,2.3c0.6-1,1.2-1.8,1.9-2.4s1.4-1.1,2.1-1.5s1.5-0.6,2.2-0.8s1.5-0.2,2.3-0.2c1.1,0,2.2,0.2,3.2,0.5
		s1.9,0.8,2.6,1.6s1.4,1.6,1.8,2.8s0.7,2.5,0.7,4.1v13.1c0,0.6-0.2,1-0.6,1.3s-0.8,0.4-1.3,0.4s-0.9-0.1-1.3-0.4s-0.6-0.7-0.6-1.3
		V47.5z"/>
	<path d="M206.3,46.4c0-0.9-0.1-1.6-0.4-2.3s-0.6-1.1-1.1-1.5s-1-0.6-1.7-0.8s-1.4-0.2-2.2-0.2s-1.5,0-2.1,0.1s-1.2,0.2-1.7,0.4
		s-1,0.4-1.5,0.6s-0.9,0.5-1.4,0.8c-0.3,0.2-0.5,0.2-0.8,0.2c-0.4,0-0.7-0.1-1-0.4s-0.4-0.6-0.4-0.9s0.2-0.7,0.5-1
		c1-0.9,2.2-1.6,3.7-2.1s3.1-0.7,5-0.7c1.4,0,2.6,0.2,3.7,0.5s2,0.8,2.8,1.4s1.4,1.5,1.8,2.5s0.6,2.2,0.6,3.6l0,14.1
		c0,0.5-0.2,1-0.6,1.2s-0.8,0.4-1.3,0.4c-0.4,0-0.8-0.1-1.2-0.4s-0.6-0.7-0.6-1.2v-2.2c-0.3,0.7-0.8,1.3-1.3,1.8s-1.1,1-1.8,1.3
		s-1.4,0.6-2.2,0.8s-1.6,0.3-2.4,0.3c-1.1,0-2.2-0.2-3.1-0.5s-1.8-0.8-2.5-1.4s-1.3-1.3-1.7-2.2s-0.6-1.9-0.6-3
		c0-1.4,0.3-2.6,0.9-3.6s1.5-1.8,2.7-2.4s2.5-1,4.1-1.3s3.4-0.4,5.3-0.4c0.4,0,0.8,0,1.3,0s0.9,0,1.3,0V46.4z M206.3,51.2
		c-0.7,0-1.5,0-2.3,0s-1.7,0-2.6,0.1s-1.7,0.1-2.6,0.3s-1.6,0.4-2.2,0.8s-1.2,0.8-1.6,1.4s-0.6,1.3-0.6,2.2c0,0.7,0.1,1.3,0.4,1.8
		s0.6,0.9,1.1,1.3s1,0.6,1.6,0.8s1.3,0.3,2,0.3c0.9,0,1.8-0.2,2.6-0.5s1.5-0.7,2.1-1.3s1.1-1.3,1.5-2.1s0.6-1.9,0.6-3.1V51.2z"/>
	<path d="M227.8,59.7c-0.4,1-0.8,1.7-1.3,2.2s-1.1,0.7-2,0.7s-1.5-0.2-2-0.7s-0.9-1.2-1.3-2.2l-7.5-18c-0.1-0.2-0.1-0.5-0.1-0.7
		c0-0.3,0.1-0.5,0.2-0.7s0.3-0.4,0.4-0.5s0.4-0.3,0.6-0.4s0.5-0.1,0.7-0.1c0.3,0,0.7,0.1,1,0.3s0.5,0.5,0.7,0.9l7.3,17.7l7.1-17.7
		c0.2-0.4,0.4-0.7,0.7-0.9s0.6-0.3,1-0.3c0.2,0,0.5,0,0.7,0.1s0.4,0.2,0.6,0.3s0.3,0.3,0.4,0.5s0.2,0.4,0.2,0.7c0,0.2,0,0.5-0.1,0.7
		L227.8,59.7z"/>
	<path d="M259.7,50.2c0,0.4-0.1,0.7-0.3,0.9s-0.6,0.4-1.2,0.4h-16.8c0,1.5,0.3,2.8,0.6,3.8s1,1.9,1.7,2.6s1.6,1.2,2.5,1.6
		s1.9,0.5,3,0.5c1.1,0,2.3-0.2,3.5-0.6s2.3-1,3.5-1.8c0.2-0.1,0.3-0.2,0.5-0.3s0.3-0.1,0.5-0.1c0.4,0,0.6,0.1,0.9,0.4
		s0.3,0.5,0.3,0.8c0,0.2,0,0.4-0.1,0.6s-0.2,0.4-0.4,0.6c-0.6,0.6-1.3,1.1-2.1,1.6s-1.5,0.8-2.2,1s-1.5,0.5-2.3,0.6S249.8,63,249,63
		c-1.6,0-3.1-0.3-4.5-0.8s-2.6-1.4-3.7-2.4s-1.9-2.3-2.5-3.8s-0.9-3.2-0.9-5.1c0-1.6,0.2-3.1,0.7-4.6s1.2-2.8,2.1-3.9s2.1-2,3.5-2.7
		s3-1,4.8-1c1.9,0,3.5,0.3,4.9,0.9s2.5,1.4,3.4,2.4s1.6,2.2,2,3.6S259.7,48.5,259.7,50.2z M256,49.1c-0.1-1.1-0.3-2.1-0.6-3
		s-0.8-1.7-1.4-2.3s-1.4-1.2-2.2-1.5s-1.9-0.5-3.1-0.5c-1,0-1.9,0.2-2.8,0.6s-1.6,0.9-2.2,1.6s-1.1,1.5-1.5,2.4s-0.6,1.8-0.7,2.8
		H256z"/>
	<path d="M265.2,41c0-0.6,0.2-1,0.6-1.3s0.8-0.4,1.3-0.4c0.8,0,1.4,0.3,1.7,0.9s0.3,1.6,0.2,2.9c0.3-0.7,0.7-1.3,1.3-1.8
		s1.2-1,1.9-1.3s1.4-0.7,2.2-0.9s1.6-0.3,2.4-0.3c1.1,0,2.2,0.2,3.2,0.5s1.9,0.9,2.6,1.6s1.4,1.7,1.8,2.8s0.7,2.5,0.7,4.1v12.9
		c0,0.6-0.2,1-0.6,1.3s-0.8,0.4-1.3,0.4s-0.9-0.1-1.3-0.4s-0.6-0.7-0.6-1.3V47.5c0-1-0.1-1.9-0.4-2.6s-0.7-1.3-1.2-1.8
		s-1.1-0.9-1.7-1.1s-1.3-0.4-2-0.4c-1,0-1.9,0.2-2.7,0.5s-1.6,0.8-2.2,1.3s-1.1,1.3-1.5,2.3s-0.6,2-0.6,3.3v11.7
		c0,0.6-0.2,1-0.6,1.3s-0.8,0.4-1.3,0.4s-0.9-0.1-1.3-0.4s-0.6-0.7-0.6-1.3V41z"/>
</g>
<g>
</g>
<g>
</g>
<g>
</g>
<g>
</g>
<g>
</g>
<g>
</g>
</svg>
