<?xml version="1.0" encoding="utf-8"?>
<svg version="1.1" id="Layer_1" xmlns="http://www.w3.org/2000/svg" xmlns:xlink="http://www.w3.org/1999/xlink" x="0px" y="0px"
	 viewBox="0 0 3800 1500" style="enable-background:new 0 0 3800 1500;" xml:space="preserve">
<style type="text/css">
	.st0{fill:none;}
</style>
<g>
	<path d="M1869.6,356.7c40,0,70.6,7.3,91.8,22c21.2,14.7,31.8,37.1,31.8,67.2c0,37.6-18.5,63.1-55.6,76.4
		c5.1,6.1,10.8,13.6,17.2,22.4c6.4,8.8,12.9,18.3,19.6,28.6c6.7,10.3,13.1,20.8,19.2,31.6c6.1,10.8,11.6,21.4,16.4,31.8h-56.4
		c-5.1-9.6-10.5-19.3-16.4-29c-5.9-9.7-11.8-19.2-17.8-28.4s-11.9-17.9-17.8-26c-5.9-8.1-11.3-15.4-16.4-21.8
		c-3.7,0.3-6.9,0.4-9.6,0.4c-2.7,0-5.2,0-7.6,0h-24.4v104.8h-50.4V363.5c12.3-2.7,25.3-4.5,39.2-5.4
		C1846.3,357.2,1858.7,356.7,1869.6,356.7z M1873.2,400.3c-10.7,0-20.5,0.4-29.6,1.2v89.6h22c12.3,0,23.1-0.7,32.4-2
		c9.3-1.3,17.1-3.7,23.4-7.2c6.3-3.5,11-8.1,14.2-14c3.2-5.9,4.8-13.3,4.8-22.4c0-8.5-1.6-15.7-4.8-21.6c-3.2-5.9-7.8-10.5-13.8-14
		c-6-3.5-13.1-5.9-21.4-7.4C1892.1,401,1883.1,400.3,1873.2,400.3z"/>
	<path d="M2316,531.9c0,16.5-2.4,31.6-7.2,45.2c-4.8,13.6-11.6,25.2-20.4,34.8c-8.8,9.6-19.4,17.1-31.8,22.4c-12.4,5.3-26.1,8-41,8
		c-14.9,0-28.5-2.7-40.8-8c-12.3-5.3-22.8-12.8-31.6-22.4c-8.8-9.6-15.7-21.2-20.6-34.8c-4.9-13.6-7.4-28.7-7.4-45.2
		c0-16.5,2.5-31.5,7.4-45c4.9-13.5,11.9-25,20.8-34.6c8.9-9.6,19.5-17,31.8-22.2c12.3-5.2,25.7-7.8,40.4-7.8
		c14.7,0,28.2,2.6,40.6,7.8c12.4,5.2,23,12.6,31.8,22.2c8.8,9.6,15.7,21.1,20.6,34.6C2313.5,500.4,2316,515.4,2316,531.9z
		 M2266.4,531.9c0-20.8-4.5-37.3-13.4-49.4c-8.9-12.1-21.4-18.2-37.4-18.2s-28.5,6.1-37.4,18.2c-8.9,12.1-13.4,28.6-13.4,49.4
		c0,21.1,4.5,37.7,13.4,50c8.9,12.3,21.4,18.4,37.4,18.4s28.5-6.1,37.4-18.4C2261.9,569.6,2266.4,553,2266.4,531.9z"/>
	<path d="M2434.4,532.3c0-15.5,2.4-29.9,7.2-43.4c4.8-13.5,11.7-25.1,20.6-35c8.9-9.9,19.8-17.6,32.6-23.2
		c12.8-5.6,27.2-8.4,43.2-8.4c19.7,0,38.4,3.6,56,10.8l-10.4,39.6c-5.6-2.4-11.9-4.4-19-6c-7.1-1.6-14.6-2.4-22.6-2.4
		c-18.9,0-33.3,5.9-43.2,17.8c-9.9,11.9-14.8,28.6-14.8,50.2c0,20.8,4.7,37.3,14,49.4c9.3,12.1,25.1,18.2,47.2,18.2
		c8.3,0,16.4-0.8,24.4-2.4s14.9-3.6,20.8-6l6.8,40c-5.3,2.7-13.4,5.1-24.2,7.2c-10.8,2.1-21.9,3.2-33.4,3.2
		c-17.9,0-33.4-2.7-46.6-8.2c-13.2-5.5-24.1-13.1-32.8-22.8c-8.7-9.7-15.1-21.3-19.4-34.8C2436.5,562.6,2434.4,548,2434.4,532.3z"/>
	<path d="M2763.2,509.1c6.1-6.4,12.7-13.3,19.6-20.6c6.9-7.3,13.7-14.7,20.4-22c6.7-7.3,13-14.4,19-21.2s11.1-12.7,15.4-17.8h57.2
		c-13.3,14.9-27.3,30.4-42.1,46.4s-29.6,31.6-44.5,46.8c8,6.7,16.4,14.7,25.1,24.2c8.8,9.5,17.3,19.5,25.5,30.2
		c8.3,10.7,16,21.3,23.2,32c7.2,10.7,13.2,20.5,18,29.6h-56c-4.8-8.3-10.3-16.9-16.6-26c-6.3-9.1-13-17.9-20.2-26.4
		c-7.2-8.5-14.5-16.6-22-24.2c-7.5-7.6-14.8-14.1-22-19.4v96h-48.4V334.3l48.4-8V509.1z"/>
	<path d="M3003.6,533.1c0-18.4,2.7-34.5,8.2-48.4c5.5-13.9,12.7-25.4,21.8-34.6c9.1-9.2,19.5-16.1,31.2-20.8c11.7-4.7,23.7-7,36-7
		c28.8,0,51.3,8.9,67.4,26.8c16.1,17.9,24.2,44.5,24.2,80c0,2.7-0.1,5.7-0.2,9c-0.1,3.3-0.3,6.3-0.6,9h-138
		c1.3,16.8,7.3,29.8,17.8,39c10.5,9.2,25.8,13.8,45.8,13.8c11.7,0,22.5-1.1,32.2-3.2c9.7-2.1,17.4-4.4,23-6.8l6.4,39.6
		c-2.7,1.3-6.3,2.7-11,4.2c-4.7,1.5-10,2.8-16,4s-12.5,2.2-19.4,3c-6.9,0.8-14,1.2-21.2,1.2c-18.4,0-34.4-2.7-48-8.2
		c-13.6-5.5-24.8-13.1-33.6-22.8c-8.8-9.7-15.3-21.2-19.6-34.4C3005.7,563.3,3003.6,548.8,3003.6,533.1z M3144,511.5
		c0-6.7-0.9-13-2.8-19c-1.9-6-4.6-11.2-8.2-15.6c-3.6-4.4-8-7.9-13.2-10.4c-5.2-2.5-11.4-3.8-18.6-3.8c-7.5,0-14,1.4-19.6,4.2
		c-5.6,2.8-10.3,6.5-14.2,11c-3.9,4.5-6.9,9.7-9,15.6c-2.1,5.9-3.6,11.9-4.4,18H3144z"/>
	<path d="M3321.2,372.3l48.4-8v63.2h74.4v40.4h-74.4v85.2c0,16.8,2.7,28.8,8,36c5.3,7.2,14.4,10.8,27.2,10.8
		c8.8,0,16.6-0.9,23.4-2.8c6.8-1.9,12.2-3.6,16.2-5.2l8,38.4c-5.6,2.4-12.9,4.9-22,7.4c-9.1,2.5-19.7,3.8-32,3.8
		c-14.9,0-27.4-2-37.4-6s-17.9-9.8-23.8-17.4c-5.9-7.6-10-16.8-12.4-27.6s-3.6-23.1-3.6-37V372.3z"/>
	<path d="M2016.6,1076.7c-2.7-6.7-6.5-15.5-11.4-26.4c-5-10.9-10.5-22.9-16.7-35.8c-6.2-12.9-12.5-26.3-18.9-40
		c-6.4-13.7-12.6-26.6-18.5-38.6c-5.9-12-11.1-22.5-15.7-31.6c-4.6-9.1-7.9-15.5-10-19.2c-3.5,33.3-6.2,69.5-8.2,108.6
		c-2,39.1-3.8,80.1-5.4,123H1885c2.4-50.4,5.1-98.7,8.2-144.8c3.1-46.1,6.9-90.3,11.4-132.4h24c8,13.3,16.6,28.7,25.7,46.2
		c9.1,17.5,18.1,35.6,27,54.4c9,18.8,17.6,37.3,26.1,55.6c8.4,18.3,15.8,34.7,22.2,49.4c6.4-14.7,13.8-31.1,22.2-49.4
		c8.4-18.3,17.1-36.8,26-55.6c9-18.8,18-36.9,27.1-54.4c9.1-17.5,17.6-32.9,25.6-46.2h22.8c4.5,42.1,8.3,86.3,11.4,132.4
		c3.1,46.1,5.8,94.4,8.2,144.8h-27.6c-1.6-42.9-3.4-83.9-5.4-123c-2-39.1-4.7-75.3-8.2-108.6c-2.1,3.7-5.5,10.1-10,19.2
		c-4.5,9.1-9.7,19.6-15.6,31.6c-5.9,12-12,24.9-18.4,38.6c-6.4,13.7-12.7,27.1-18.8,40c-6.1,12.9-11.7,24.9-16.6,35.8
		c-4.9,10.9-8.7,19.7-11.4,26.4H2016.6z"/>
	<path d="M2379,905.1c13.6,0,25.1,1.9,34.6,5.8c9.5,3.9,17.1,9.2,23,16c5.9,6.8,10.1,14.9,12.8,24.2c2.7,9.3,4,19.5,4,30.4v130.4
		c-2.7,0.8-6.5,1.7-11.6,2.6c-5.1,0.9-10.9,1.9-17.6,3c-6.7,1.1-14.1,1.9-22.2,2.6c-8.1,0.7-16.5,1-25,1c-10.9,0-21-1.2-30.2-3.6
		s-17.2-6.2-24-11.4c-6.8-5.2-12.1-11.9-16-20c-3.9-8.1-5.8-18.1-5.8-29.8c0-11.2,2.1-20.8,6.4-28.8c4.3-8,10.3-14.6,18-19.8
		c7.7-5.2,16.9-9,27.6-11.4c10.7-2.4,22.3-3.6,34.8-3.6c3.7,0,7.7,0.2,11.8,0.6c4.1,0.4,8.1,0.9,12,1.6c3.9,0.7,7.2,1.3,10,2
		c2.8,0.7,4.7,1.3,5.8,1.8v-12.8c0-7.2-0.5-14.2-1.6-21c-1.1-6.8-3.4-12.9-7-18.4c-3.6-5.5-8.7-9.9-15.2-13.2
		c-6.5-3.3-15.1-5-25.8-5c-15.2,0-26.5,1.1-34,3.2c-7.5,2.1-12.9,3.9-16.4,5.2l-3.6-22.8c4.5-2.1,11.5-4.1,21-6
		C2354.3,906,2365.7,905.1,2379,905.1z M2381.4,1097.9c10.1,0,19-0.3,26.6-1c7.6-0.7,14.1-1.5,19.4-2.6v-72.8
		c-2.9-1.3-7.6-2.7-14-4.2c-6.4-1.5-15.2-2.2-26.4-2.2c-6.4,0-13.1,0.5-20,1.4c-6.9,0.9-13.3,2.9-19.2,6
		c-5.9,3.1-10.7,7.3-14.4,12.6c-3.7,5.3-5.6,12.4-5.6,21.2c0,7.7,1.3,14.3,3.8,19.6c2.5,5.3,6.1,9.6,10.8,12.8
		c4.7,3.2,10.3,5.5,16.8,7C2365.7,1097.2,2373.1,1097.9,2381.4,1097.9z"/>
	<path d="M2662.4,1088.7c5.6-11.5,11.4-24.6,17.3-39.4s11.6-30.1,17.1-46c5.5-15.9,10.6-31.9,15.2-48c4.7-16.1,8.6-31.3,11.8-45.4
		h26c-4.8,18.9-10.2,37.6-16.1,56c-5.9,18.4-12.1,36.4-18.7,54c-6.6,17.6-13.4,34.5-20.5,50.8c-7.1,16.3-14,31.6-20.7,46h-24.2
		c-7-14.4-14-29.7-20.9-46c-7-16.3-13.8-33.2-20.3-50.8c-6.6-17.6-12.8-35.6-18.7-54c-5.9-18.4-11.3-37.1-16.1-56h27.6
		c3.2,14.1,7.2,29.3,11.8,45.4c4.7,16.1,9.8,32.1,15.3,48c5.5,15.9,11.2,31.2,17.1,46C2651,1064.1,2656.8,1077.2,2662.4,1088.7z"/>
	<path d="M2859.4,1013.1c0-18.1,2.6-33.9,7.8-47.4c5.2-13.5,12-24.7,20.4-33.8c8.4-9.1,18-15.8,28.8-20.2
		c10.8-4.4,21.9-6.6,33.4-6.6c25.3,0,45.5,8.3,60.6,24.8c15.1,16.5,22.6,42,22.6,76.4c0,2.1-0.1,4.3-0.2,6.4c-0.1,2.1-0.3,4.1-0.6,6
		H2887c0.8,25.3,7.1,44.8,18.8,58.4c11.7,13.6,30.4,20.4,56,20.4c14.1,0,25.3-1.3,33.6-4c8.3-2.7,14.3-4.9,18-6.8l4.8,22.4
		c-3.7,2.1-10.7,4.7-21,7.6c-10.3,2.9-22.3,4.4-36.2,4.4c-18.1,0-33.6-2.7-46.4-8c-12.8-5.3-23.3-12.8-31.6-22.4
		c-8.3-9.6-14.3-21-18-34.2C2861.3,1043.3,2859.4,1028.8,2859.4,1013.1z M3006.2,996.7c-0.5-21.6-5.6-38.4-15.2-50.4
		c-9.6-12-23.2-18-40.8-18c-9.3,0-17.7,1.9-25,5.6c-7.3,3.7-13.7,8.7-19.2,15c-5.5,6.3-9.7,13.5-12.8,21.8c-3.1,8.3-4.9,16.9-5.4,26
		H3006.2z"/>
	<path d="M3171,917.1c7.7-2.1,18.1-4.5,31.2-7.2c13.1-2.7,29.1-4,48-4c15.7,0,28.9,2.3,39.4,6.8c10.5,4.5,18.9,11,25.2,19.4
		c6.3,8.4,10.7,18.5,13.4,30.2c2.7,11.7,4,24.7,4,38.8v115.6h-26v-107.2c0-14.7-1-27.1-3-37.2c-2-10.1-5.3-18.4-10-24.8
		c-4.7-6.4-10.8-11-18.4-13.8c-7.6-2.8-17.1-4.2-28.6-4.2c-12.3,0-22.9,0.7-31.8,2c-8.9,1.3-14.7,2.5-17.4,3.6v181.6h-26V917.1z"/>
</g>
<rect x="1500" class="st0" width="2300" height="1500"/>
<g>
	<polygon points="834.3,1034.7 857.6,1007.6 766,901.1 765.9,870.1 834.3,949.5 857.6,922.4 765.9,815.9 765.6,335.1 840.7,372.1 
		748.9,119.9 657.5,372.3 732.6,335.1 732.9,816.4 641.7,922.4 665,949.5 733,870.5 733,901.5 641.7,1007.6 665,1034.7 733,955.6 
		733.1,986.6 641.7,1092.7 665,1119.8 733.1,1040.7 733.1,1071.7 641.7,1177.9 665,1205 733.1,1125.8 733.2,1156.8 641.7,1263.1 
		665,1290.2 733.2,1210.9 733.3,1290 766.2,1290 766.2,1211 834.3,1290.2 857.6,1263.1 766.1,1156.8 766.1,1125.8 834.3,1205 
		857.6,1177.9 766.1,1071.5 766.1,1040.6 834.3,1119.9 857.6,1092.8 766,986.3 766,955.3 	"/>
	<polygon points="521.9,1052.5 557.5,1049.8 568,909.7 589.9,887.8 582.1,992.3 617.7,989.6 628.3,849.4 968,509.2 994.9,588.5 
		1108.4,345.3 865.3,459.1 944.6,485.9 604.6,826.5 465.1,836.9 462.4,872.6 566.3,864.8 544.4,886.7 404.8,897.2 402.2,932.8 
		506.2,925 484.3,946.9 344.6,957.4 342,993 446,985.2 424.2,1007.1 284.4,1017.6 281.7,1053.2 385.9,1045.4 364,1067.3 
		224.2,1077.8 221.5,1113.5 325.8,1105.6 269.9,1161.6 293.2,1184.9 349,1129 341.2,1233.2 376.9,1230.5 387.4,1090.6 409.3,1068.7 
		401.4,1173 437.1,1170.3 447.6,1030.3 469.5,1008.4 461.7,1112.7 497.3,1110.1 507.8,970 529.7,948.1 	"/>
	<polygon points="1095.7,931.3 1093,895.7 952.9,885.2 931,863.3 1035.4,871.1 1032.8,835.5 892.6,825 552.4,485.2 631.7,458.3 
		388.5,344.8 502.3,587.9 529.1,508.6 869.6,848.7 880.1,988.1 915.7,990.8 908,886.9 929.8,908.8 940.3,1048.4 976,1051 
		968.2,947.1 990.1,968.9 1000.5,1108.6 1036.2,1111.3 1028.4,1007.2 1050.3,1029 1060.7,1168.8 1096.4,1171.5 1088.6,1067.3 
		1110.5,1089.2 1121,1229 1156.6,1231.7 1148.8,1127.4 1204.7,1183.3 1228,1160 1172.2,1104.2 1276.3,1112 1273.6,1076.3 
		1133.8,1065.9 1111.9,1044 1216.1,1051.8 1213.4,1016.1 1073.5,1005.6 1051.6,983.7 1155.9,991.6 1153.2,955.9 1013.2,945.4 
		991.3,923.5 	"/>
	<rect class="st0" width="1500" height="1500"/>
</g>
</svg>
